<svg xmlns="http://www.w3.org/2000/svg" viewBox="0 0 16 16"><path fill="#FAFAFA" d="M6 9.5l-.5-.001V9.5zM10.5 9.5h.5l-.5-.001z"/><path fill="#FF9800" d="M16.07 8c0-1.103-.897-2-2-2-.441 0-.86.144-1.202.405-1.116-.775-2.578-1.237-4.133-1.354l.839-1.968 2.441.57C12.093 4.408 12.725 5 13.5 5c.827 0 1.5-.673 1.5-1.5S14.327 2 13.5 2c-.524 0-.985.271-1.253.68l-2.853-.667a.5.5 0 0 0-.575.291l-1.16 2.72c-1.679.058-3.279.531-4.487 1.355A2.002 2.002 0 0 0 0 8a1.98 1.98 0 0 0 1.011 1.731A2.978 2.978 0 0 0 1 10c0 2.757 3.14 5 7 5 3.859 0 7-2.243 7-5 0-.078-.003-.155-.008-.232A1.98 1.98 0 0 0 16.07 8z"/><circle cx="13.5" cy="3.5" r=".5" fill="#FAFAFA"/><circle cx="5.5" cy="9.5" r="1" fill="#FAFAFA"/><path fill="#FAFAFA" d="M10.309 12.817a3.936 3.936 0 0 1-4.618 0 .5.5 0 1 1 .586-.81 2.933 2.933 0 0 0 3.446 0 .5.5 0 1 1 .586.81z"/><circle cx="10.5" cy="9.5" r="1" fill="#FAFAFA"/></svg>