<svg xmlns="http://www.w3.org/2000/svg" enable-background="new 0 0 24 24" viewBox="0 0 24 24"><path d="M12.001,24c-0.287,0-0.55-0.146-0.705-0.389l-0.379-0.612l-0.486,0.521c-0.384,0.419-1.187,0.266-1.388-0.277l-0.25-0.668l-0.579,0.417c-0.516,0.354-1.21,0.03-1.307-0.538l-0.116-0.709l-0.649,0.296c0,0-0.001,0.001-0.002,0.001c-0.52,0.237-1.174-0.178-1.174-0.755l0.025-0.746l-0.695,0.163c-0.037,0.009-0.152,0.023-0.191,0.023c-0.458,0-0.832-0.373-0.832-0.832c0-0.044,0.015-0.163,0.026-0.206l0.159-0.68l-0.712,0.025h0c-0.49,0-0.863-0.373-0.863-0.832c0-0.122,0.027-0.244,0.079-0.353l0.293-0.643l-0.703-0.114c-0.406-0.063-0.702-0.409-0.702-0.82c0-0.178,0.055-0.348,0.16-0.49l0.414-0.576l-0.668-0.251c-0.325-0.121-0.541-0.435-0.541-0.779c0-0.227,0.096-0.447,0.262-0.605l0.525-0.49l-0.607-0.376C0.152,12.556,0,12.285,0,11.998c0-0.292,0.149-0.557,0.399-0.709l0.604-0.375l-0.521-0.486c-0.166-0.153-0.263-0.375-0.263-0.606c0-0.342,0.214-0.654,0.534-0.777l0.674-0.253L1.009,8.212C0.907,8.067,0.854,7.9,0.854,7.727c0-0.404,0.291-0.75,0.69-0.821l0.71-0.115L1.958,6.141c-0.05-0.106-0.076-0.226-0.076-0.346c0-0.459,0.373-0.832,0.832-0.832l0.743,0.025L3.294,4.294c-0.009-0.037-0.022-0.152-0.022-0.19c0-0.459,0.374-0.832,0.833-0.832c0.036,0,0.147,0.012,0.182,0.02L4.99,3.457L4.965,2.743c0-0.621,0.675-1.03,1.186-0.782l0.64,0.291l0.115-0.704c0.099-0.583,0.851-0.877,1.311-0.54l0.575,0.415l0.25-0.668c0.207-0.544,0.997-0.695,1.388-0.276l0.487,0.522l0.375-0.606C11.6-0.102,12.399-0.1,12.706,0.393l0.376,0.608l0.486-0.522c0.388-0.418,1.174-0.269,1.385,0.269l0.252,0.676l0.58-0.418c0.467-0.333,1.205-0.037,1.306,0.535l0.116,0.713l0.649-0.297c0.001,0,0.002-0.001,0.003-0.001c0.518-0.237,1.174,0.178,1.174,0.755l-0.025,0.747l0.694-0.164c0.038-0.009,0.152-0.021,0.191-0.021c0.459,0,0.833,0.373,0.833,0.832c0,0.039-0.013,0.154-0.022,0.192l-0.164,0.692l0.713-0.025c0.29-0.017,0.558,0.128,0.72,0.367c0.162,0.24,0.187,0.551,0.065,0.812L21.743,6.79l0.704,0.114c0.405,0.064,0.7,0.409,0.7,0.82c0,0.174-0.054,0.342-0.157,0.485l-0.417,0.58l0.668,0.251c0.325,0.125,0.539,0.438,0.539,0.78c0,0.229-0.095,0.449-0.26,0.605l-0.524,0.488l0.557,0.346c0.017,0.008,0.033,0.017,0.049,0.026C23.851,11.439,24,11.704,24,11.996s-0.149,0.557-0.399,0.709l-0.604,0.374l0.522,0.488c0.167,0.153,0.265,0.376,0.265,0.607c0,0.345-0.217,0.657-0.54,0.779l-0.669,0.251l0.417,0.579c0.103,0.145,0.156,0.312,0.156,0.485c0,0.404-0.291,0.75-0.69,0.821l-0.711,0.115l0.296,0.65c0,0.001,0.001,0.003,0.002,0.004c0.049,0.108,0.074,0.224,0.074,0.343c0,0.458-0.373,0.83-0.83,0.83l-0.746-0.025l0.164,0.696c0.009,0.037,0.022,0.151,0.022,0.189c0,0.459-0.374,0.832-0.833,0.832c-0.049,0-0.174-0.016-0.221-0.03L19.01,20.54l0.025,0.714c0,0.615-0.671,1.021-1.181,0.784l-0.645-0.294l-0.115,0.705c-0.09,0.577-0.831,0.886-1.308,0.543l-0.579-0.417l-0.25,0.669c-0.216,0.552-0.991,0.698-1.386,0.279l-0.488-0.524l-0.376,0.607C12.549,23.855,12.286,24,12.001,24z M9.979,22.894L9.979,22.894C9.98,22.894,9.98,22.894,9.979,22.894z M10.84,21.85c0.019,0,0.038,0.001,0.057,0.003l0.271,0.027c0.156,0.015,0.296,0.102,0.379,0.235l0.455,0.734l0.455-0.735c0.083-0.133,0.223-0.22,0.379-0.234l0.27-0.027c0.159-0.019,0.314,0.039,0.423,0.156l0.589,0.632l0.302-0.808c0.056-0.149,0.178-0.263,0.331-0.306l0.256-0.078c0.15-0.05,0.317-0.023,0.447,0.07l0.698,0.503l0.139-0.853c0.025-0.156,0.123-0.291,0.263-0.363l0.242-0.13c0.139-0.075,0.305-0.082,0.448-0.017l0.784,0.357l-0.03-0.864c-0.006-0.158,0.064-0.311,0.188-0.409c0.068-0.054,0.135-0.107,0.2-0.164c0.122-0.106,0.286-0.15,0.442-0.109l0.845,0.198l-0.202-0.843c-0.036-0.152,0.002-0.313,0.102-0.434l0.171-0.209c0.099-0.125,0.241-0.188,0.41-0.19l0.864,0.031l-0.357-0.786c-0.065-0.144-0.059-0.311,0.018-0.449l0.13-0.24c0.073-0.14,0.207-0.236,0.363-0.262l0.85-0.139l-0.503-0.699c-0.091-0.127-0.118-0.289-0.072-0.438l0.083-0.273c0.045-0.148,0.157-0.268,0.303-0.321l0.807-0.303l-0.631-0.59c-0.114-0.106-0.171-0.26-0.156-0.414l0.026-0.274c0.013-0.158,0.101-0.301,0.235-0.384l0.731-0.453l-0.734-0.455c-0.134-0.083-0.221-0.225-0.234-0.382l-0.025-0.273c-0.017-0.155,0.042-0.311,0.156-0.417l0.63-0.588L21.83,9.579c-0.149-0.056-0.263-0.18-0.306-0.333l-0.077-0.259c-0.048-0.15-0.021-0.315,0.071-0.443l0.501-0.696l-0.85-0.139c-0.158-0.025-0.294-0.125-0.366-0.268c-0.052-0.103-0.088-0.171-0.125-0.235c-0.077-0.139-0.084-0.306-0.018-0.45l0.356-0.784l-0.864,0.031c-0.157-0.004-0.312-0.065-0.411-0.191c-0.062-0.079-0.116-0.144-0.171-0.207c-0.131-0.151-0.155-0.358-0.079-0.53l0.177-0.749l-0.841,0.202c-0.154,0.035-0.318-0.003-0.44-0.106l-0.181-0.15c-0.123-0.099-0.218-0.269-0.212-0.427l0.03-0.865L17.24,3.337c-0.143,0.064-0.311,0.059-0.448-0.017L16.55,3.19c-0.14-0.072-0.237-0.207-0.263-0.363l-0.139-0.852l-0.7,0.504c-0.141,0.101-0.326,0.122-0.485,0.055c-0.025-0.009-0.09-0.028-0.156-0.046c-0.154-0.043-0.336-0.172-0.393-0.322L14.113,1.36l-0.587,0.631c-0.112,0.12-0.272,0.177-0.437,0.154c-0.049-0.007-0.136-0.015-0.224-0.022c-0.157-0.014-0.33-0.104-0.413-0.237l-0.455-0.734l-0.455,0.735c-0.083,0.135-0.226,0.222-0.384,0.234L10.89,2.147c-0.155,0.02-0.31-0.04-0.418-0.156L9.883,1.359L9.581,2.166C9.525,2.316,9.4,2.431,9.246,2.474L9.018,2.541C8.87,2.587,8.675,2.571,8.547,2.479L7.849,1.976L7.71,2.827C7.684,2.985,7.585,3.121,7.442,3.193L7.206,3.318C7.066,3.396,6.9,3.401,6.756,3.336L5.974,2.979l0.03,0.865c0.006,0.158-0.064,0.311-0.188,0.409L5.611,4.421C5.489,4.524,5.324,4.562,5.17,4.527l-0.844-0.2l0.202,0.844c0.036,0.153-0.002,0.315-0.104,0.437L4.254,5.813C4.156,5.938,4.009,6.02,3.845,6.003L2.981,5.972l0.358,0.784c0.069,0.152,0.058,0.328-0.029,0.47C3.29,7.259,3.252,7.33,3.214,7.4C3.141,7.537,2.982,7.685,2.829,7.709l-0.85,0.139l0.503,0.699c0.093,0.129,0.119,0.294,0.07,0.445l-0.08,0.261C2.429,9.403,2.316,9.525,2.168,9.58L1.362,9.883l0.63,0.588c0.12,0.111,0.177,0.273,0.154,0.435c-0.007,0.05-0.014,0.135-0.022,0.223c-0.013,0.157-0.102,0.331-0.236,0.414l-0.735,0.456l0.734,0.455c0.135,0.083,0.222,0.226,0.235,0.384l0.021,0.22c0.016,0.155-0.037,0.362-0.151,0.469l-0.631,0.59l0.807,0.303c0.149,0.056,0.263,0.179,0.306,0.332c0.024,0.085,0.05,0.171,0.078,0.254c0.049,0.152,0.023,0.318-0.07,0.447L1.979,16.15l0.852,0.139c0.157,0.025,0.292,0.124,0.365,0.266c0.04,0.079,0.082,0.155,0.125,0.232c0.079,0.14,0.086,0.308,0.02,0.453l-0.358,0.785l0.863-0.03c0.161-0.005,0.309,0.064,0.408,0.188l0.171,0.209c0.102,0.12,0.141,0.282,0.105,0.437l-0.199,0.846l0.842-0.202c0.155-0.042,0.319,0.003,0.44,0.106l0.204,0.167c0.124,0.099,0.194,0.251,0.188,0.409l-0.03,0.864l0.784-0.357c0.144-0.066,0.312-0.06,0.452,0.02l0.238,0.127c0.14,0.072,0.237,0.207,0.263,0.363l0.139,0.852l0.699-0.503c0.128-0.093,0.292-0.119,0.445-0.071l0.258,0.079c0.153,0.043,0.275,0.156,0.331,0.306l0.302,0.807l0.589-0.631C10.569,21.906,10.702,21.85,10.84,21.85z M9.699,22.84c0,0-0.001,0.001-0.001,0.002L9.699,22.84z M16.107,22.29c0,0.001,0,0.002,0,0.002L16.107,22.29z M1.822,16.368L1.821,16.37C1.821,16.37,1.822,16.369,1.822,16.368z M22.837,14.299c0.001,0.001,0.001,0.002,0.002,0.002L22.837,14.299z M0.925,12.14l-0.002,0.001C0.923,12.141,0.924,12.14,0.925,12.14z M23.078,11.854c0,0-0.001,0-0.002,0.001L23.078,11.854z M1.162,9.695L1.162,9.695C1.163,9.696,1.162,9.695,1.162,9.695z M21.129,5.726c0,0.001,0,0.001-0.001,0.002L21.129,5.726z M7.628,1.816C7.629,1.817,7.63,1.818,7.63,1.818L7.628,1.816z"/><path d="M7 20c-.551 0-1-.448-1-1 0-.465.33-.876.784-.977.009-.002.018-.004.027-.005C6.871 18.006 6.935 18 7 18c.551 0 1 .448 1 1 0 .465-.33.876-.784.977-.009.002-.018.004-.027.005C7.129 19.994 7.065 20 7 20zM7.108 19.488h.01H7.108zM7 18.999L7 18.999C7 18.999 7 18.999 7 18.999 7 18.999 7 18.999 7 18.999zM17 19.996c-.074 0-.147-.008-.218-.024C16.322 19.868 16 19.467 16 18.996c0-.621.616-1.101 1.204-.979C17.677 18.122 18 18.524 18 18.996 18 19.548 17.551 19.996 17 19.996zM17 18.996C17 18.996 17 18.996 17 18.996L17 19.496 17 18.996zM20 10.001c-.551 0-1-.448-1-1 0-.142.029-.279.087-.407.108-.244.305-.432.554-.527.25-.096.522-.088.765.02C20.768 8.25 21 8.608 21 9.001 21 9.553 20.551 10.001 20 10.001zM20 9c0 .002 0 .003-.001.004C20 9.003 20 9.001 20 9zM19.543 8.798h.01H19.543zM12.03 4.016c-.557 0-1.009-.452-1.009-1.009 0-.259.098-.505.276-.694.008-.008.016-.016.023-.023.19-.176.436-.273.692-.273.556 0 1.009.452 1.009 1.009 0 .274-.114.54-.312.729C12.507 3.929 12.273 4.016 12.03 4.016z"/><path d="M12.001 19.996c-1.183 0-2.314-.253-3.374-.751-.142-.066-.244-.195-.276-.349l-.306-1.438c-.078.02-.163.015-.241-.008l-1.083.233c-.168.039-.345-.016-.466-.142-.242-.251-.471-.521-.68-.804-.112-.151-.136-.364-.051-.532.085-.169.25-.285.439-.285h5.745v-1.339h-1.409c-.276 0-.5-.224-.5-.5v-1.386c0-.276.224-.5.5-.5h1.939c.64 0 1.417.373 1.677 1.422.028.111.07.318.116.552.067.336.168.844.23 1.012.102.314.46.739.615.739h3.055c.27-.053.539.115.598.383.034.159-.009.316-.105.432-.227.306-.462.583-.718.846-.121.123-.294.177-.464.139l-1.289-.279c-.004.019-.072.081-.078.099l-.292 1.387c-.033.155-.137.285-.281.351C14.265 19.755 13.153 19.996 12.001 19.996zM9.277 18.44c1.712.735 3.691.731 5.383.027l.252-1.187c.028-.131.08-.252.15-.359h-.184c-.826 0-1.417-.971-1.56-1.414-.076-.205-.158-.604-.265-1.142-.042-.212-.08-.4-.106-.504-.144-.579-.504-.665-.707-.665h-1.439v.386h1.293c.404 0 .616.29.616.576v2.187c0 .286-.211.576-.616.576H8.893c.061.1.106.211.131.33L9.277 18.44zM12.649 11.15h-2.347c-.276 0-.5-.224-.5-.5V9.227c0-.276.224-.5.5-.5h2.531c.365 0 1.423.308 1.423 1.25C14.257 10.679 13.611 11.15 12.649 11.15zM10.803 10.15h1.847c.371 0 .584-.116.606-.162.001-.155-.352-.255-.439-.263l-2.014.001V10.15z"/><path d="M17.617 14.551c-.55 0-1.149-.298-1.262-.805-.197-1.115-.45-1.316-1.005-1.757-.126-.101-.217-.271-.208-.434.008-.161.074-.324.209-.411.868-.556 1.308-1.137 1.308-1.728 0-.779-.519-1.289-.955-1.58-.562-.375-1.194-.451-1.333-.451H6.413c-.197 0-.375-.115-.456-.295S5.909 6.7 6.04 6.554c1.179-1.325 2.709-2.202 4.426-2.538.005-.001.01-.002.015-.003l.047-.008c.166-.032.331.029.445.149l.938.992 1.124-1.01c.117-.113.281-.163.442-.132 2.301.446 4.289 1.865 5.454 3.893.079.138.107.342.043.487l-.718 1.637c.014.006.056.096.069.103l1.343.601c.164.073.275.229.293.407C19.987 11.396 20 11.661 20 11.933c.001.198-.006.399-.021.598-.019.261-.237.463-.499.463h-.378c-.005.902-.475 1.452-1.324 1.549C17.726 14.548 17.672 14.551 17.617 14.551zM17.322 13.471c.063.041.205.093.345.077.271-.03.436-.085.436-.57v-.356c0-.358.261-.628.608-.628h.29c0-.021 0-.04 0-.061-.001-.14-.005-.278-.013-.417l-1.113-.499c-.225-.103-.401-.276-.509-.486-.205.376-.517.732-.936 1.069C16.854 12.01 17.138 12.484 17.322 13.471zM7.662 6.386h6.709c.331 0 1.151.129 1.887.619.46.307 1.195.945 1.364 1.97l.333-.758c-.995-1.613-2.582-2.751-4.417-3.177L12.68 5.868c-.411.396-1.106.377-1.496-.034l-.748-.79C9.417 5.277 8.476 5.734 7.662 6.386zM10.562 4.506l.006.031.001-.002L10.562 4.506zM6.933 14.506H4.788c-.222 0-.417-.146-.48-.359-.201-.686-.307-1.45-.307-2.211 0-.294.017-.585.048-.871.019-.177.13-.33.292-.402l1.31-.587c-.034-.076-.046-.16-.04-.243L5.411 9.376c-.068-.155-.053-.333.04-.475S5.7 8.675 5.869 8.675h1.063c.276 0 .5.224.5.5v4.831C7.433 14.282 7.209 14.506 6.933 14.506zM5.175 13.506h1.258v-2.798c-.1.117-.225.213-.37.278l-1.044.468c-.011.159-.017.319-.017.481C5.001 12.472 5.061 13.008 5.175 13.506zM4 10c-.406 0-.769-.242-.924-.617C3.026 9.265 3 9.132 3 9c0-.552.449-1 1-1 .384 0 .728.215.897.56C4.965 8.7 5 8.851 5 9 5 9.552 4.551 10 4 10zM4 8.5L4 9C4 9 4 9 4 9L4 8.5z"/></svg>